<svg width="358" height="377" viewBox="0 0 358 377" fill="none" xmlns="http://www.w3.org/2000/svg">
<g clip-path="url(#clip0_380_275)">
<circle cx="32.3385" cy="53.3388" r="30.4995" transform="rotate(-12.4037 32.3385 53.3388)" fill="url(#paint0_linear_380_275)"/>
<path d="M118.131 65H19.8252C18.2647 65 16.9998 66.2597 16.9998 67.8135V119.744C16.9998 121.298 18.2647 122.558 19.8252 122.558H118.131C119.692 122.558 120.957 121.298 120.957 119.744V67.8135C120.957 66.2597 119.692 65 118.131 65Z" fill="#E6E6E6"/>
<path d="M117.38 67.0028H20.6834C19.6431 67.0028 18.7998 67.8425 18.7998 68.8785V118.784C18.7998 119.82 19.6431 120.66 20.6834 120.66H117.38C118.42 120.66 119.264 119.82 119.264 118.784V68.8785C119.264 67.8425 118.42 67.0028 117.38 67.0028Z" fill="#FEFEFE"/>
<path d="M29.5137 88.2674C29.458 88.1972 29.4191 88.1152 29.4 88.0278C29.3809 87.9404 29.3821 87.8497 29.4035 87.7628C29.9132 85.6366 29.9132 83.4208 29.4035 81.2945C29.3821 81.2076 29.381 81.117 29.4002 81.0295C29.4194 80.9421 29.4583 80.8601 29.5141 80.79C29.5687 80.7212 29.6382 80.6656 29.7175 80.6275C29.7968 80.5894 29.8838 80.5698 29.9718 80.5701H35.4216C35.5609 80.5703 35.6956 80.6198 35.8017 80.7098C35.9077 80.7997 35.9783 80.9241 36.0008 81.061C36.3565 83.3608 36.3565 85.7013 36.0008 88.001C35.9783 88.1379 35.9077 88.2624 35.8017 88.3523C35.6956 88.4422 35.5609 88.4917 35.4216 88.492H29.9714C29.8829 88.4918 29.7957 88.4714 29.7164 88.4325C29.6371 88.3935 29.5677 88.3371 29.5137 88.2674Z" fill="#C10547"/>
<path d="M34.3707 83.491H31.4982C31.3912 83.4908 31.2886 83.4485 31.213 83.3731C31.1373 83.2978 31.0947 83.1956 31.0946 83.0891V82.9189C31.0947 82.8123 31.1373 82.7102 31.213 82.6349C31.2886 82.5595 31.3912 82.5171 31.4982 82.517H34.3707C34.4777 82.5171 34.5803 82.5595 34.6559 82.6349C34.7316 82.7102 34.7741 82.8123 34.7743 82.9189V83.0896C34.774 83.196 34.7314 83.2981 34.6558 83.3733C34.5801 83.4485 34.4776 83.4908 34.3707 83.491Z" fill="#FEFEFE"/>
<path d="M34.3707 85.1711H31.4982C31.3912 85.171 31.2886 85.1286 31.213 85.0533C31.1373 84.9779 31.0947 84.8758 31.0946 84.7692V84.599C31.0947 84.4925 31.1373 84.3903 31.213 84.315C31.2886 84.2397 31.3912 84.1973 31.4982 84.1972H34.3707C34.4777 84.1973 34.5803 84.2397 34.6559 84.315C34.7316 84.3903 34.7741 84.4925 34.7743 84.599V84.7697C34.774 84.8762 34.7314 84.9782 34.6558 85.0534C34.5801 85.1287 34.4776 85.171 34.3707 85.1711Z" fill="#FEFEFE"/>
<path d="M113.08 73.3307H24.8292C24.7905 73.3307 24.7534 73.3153 24.726 73.288C24.6986 73.2607 24.6832 73.2236 24.6832 73.1849C24.6832 73.1463 24.6986 73.1092 24.726 73.0819C24.7534 73.0546 24.7905 73.0392 24.8292 73.0392H113.08C113.119 73.0392 113.156 73.0546 113.184 73.0819C113.211 73.1092 113.226 73.1463 113.226 73.1849C113.226 73.2236 113.211 73.2607 113.184 73.288C113.156 73.3153 113.119 73.3307 113.08 73.3307Z" fill="#3F3D56"/>
<path d="M49.7733 116.272C49.7346 116.272 49.6974 116.257 49.6701 116.229C49.6427 116.202 49.6273 116.165 49.6273 116.126V68.3373C49.6273 68.2988 49.6427 68.2618 49.6701 68.2345C49.6974 68.2073 49.7346 68.192 49.7733 68.192C49.812 68.192 49.8491 68.2073 49.8765 68.2345C49.9039 68.2618 49.9193 68.2988 49.9193 68.3373V116.126C49.9193 116.165 49.9039 116.202 49.8765 116.229C49.8491 116.257 49.812 116.272 49.7733 116.272Z" fill="#3F3D56"/>
<path d="M71.7997 116.272C71.7609 116.272 71.7238 116.257 71.6964 116.229C71.669 116.202 71.6537 116.165 71.6537 116.126V68.3373C71.6537 68.2988 71.669 68.2618 71.6964 68.2345C71.7238 68.2073 71.7609 68.192 71.7997 68.192C71.8384 68.192 71.8755 68.2073 71.9029 68.2345C71.9303 68.2618 71.9456 68.2988 71.9456 68.3373V116.126C71.9456 116.165 71.9303 116.202 71.9029 116.229C71.8755 116.257 71.8384 116.272 71.7997 116.272Z" fill="#3F3D56"/>
<path d="M93.8255 116.272C93.7868 116.272 93.7497 116.257 93.7223 116.229C93.6949 116.202 93.6796 116.165 93.6796 116.126V68.3373C93.6796 68.2988 93.6949 68.2618 93.7223 68.2345C93.7497 68.2073 93.7868 68.192 93.8255 68.192C93.8643 68.192 93.9014 68.2073 93.9288 68.2345C93.9561 68.2618 93.9715 68.2988 93.9715 68.3373V116.126C93.9715 116.165 93.9561 116.202 93.9288 116.229C93.9014 116.257 93.8643 116.272 93.8255 116.272Z" fill="#3F3D56"/>
<path d="M90.4586 95.8766H85.1289C84.955 95.8759 84.7884 95.8068 84.6655 95.6843C84.5426 95.5619 84.4732 95.3961 84.4724 95.2229V88.9595C84.4732 88.7864 84.5426 88.6206 84.6655 88.4982C84.7884 88.3757 84.955 88.3066 85.1289 88.3059H90.4586C90.6324 88.3066 90.799 88.3757 90.9219 88.4982C91.0449 88.6206 91.1143 88.7864 91.115 88.9595V95.2229C91.1143 95.3961 91.0449 95.5619 90.9219 95.6843C90.799 95.8068 90.6324 95.8759 90.4586 95.8766Z" fill="#090814"/>
<path d="M80.1016 98.2001H74.7719C74.5981 98.1994 74.4315 98.1303 74.3086 98.0078C74.1856 97.8854 74.1162 97.7196 74.1155 97.5464V91.283C74.1162 91.1099 74.1856 90.9441 74.3086 90.8217C74.4315 90.6992 74.5981 90.6301 74.7719 90.6294H80.1016C80.2755 90.6301 80.442 90.6992 80.565 90.8217C80.6879 90.9441 80.7573 91.1099 80.7581 91.283V97.5464C80.7573 97.7196 80.6879 97.8854 80.565 98.0078C80.442 98.1303 80.2755 98.1994 80.1016 98.2001Z" fill="#E6E6E6"/>
<path d="M57.784 108.077H52.4543C52.2804 108.077 52.1139 108.008 51.9909 107.885C51.868 107.763 51.7986 107.597 51.7979 107.424V101.16C51.7986 100.987 51.868 100.821 51.9909 100.699C52.1139 100.577 52.2804 100.507 52.4543 100.507H57.784C57.9579 100.507 58.1244 100.577 58.2474 100.699C58.3703 100.821 58.4397 100.987 58.4404 101.16V107.424C58.4397 107.597 58.3703 107.763 58.2474 107.885C58.1244 108.008 57.9579 108.077 57.784 108.077Z" fill="#E6E6E6"/>
<path d="M30.7976 99.7982H25.468C25.2941 99.7974 25.1276 99.7283 25.0046 99.6059C24.8817 99.4835 24.8123 99.3176 24.8115 99.1445V92.8811C24.8123 92.708 24.8817 92.5421 25.0046 92.4197C25.1276 92.2973 25.2941 92.2282 25.468 92.2274H30.7976C30.9715 92.2282 31.1381 92.2973 31.261 92.4197C31.384 92.5421 31.4534 92.708 31.4541 92.8811V99.1445C31.4534 99.3176 31.384 99.4835 31.261 99.6059C31.1381 99.7283 30.9715 99.7974 30.7976 99.7982Z" fill="#090814"/>
<path d="M45.8218 88.3232H40.4921C40.3183 88.3225 40.1517 88.2534 40.0288 88.1309C39.9058 88.0085 39.8364 87.8427 39.8357 87.6695V81.4061C39.8364 81.233 39.9058 81.0672 40.0288 80.9447C40.1517 80.8223 40.3183 80.7532 40.4921 80.7525H45.8218C45.9957 80.7532 46.1622 80.8223 46.2852 80.9447C46.4081 81.0672 46.4775 81.233 46.4783 81.4061V87.6695C46.4775 87.8427 46.4081 88.0085 46.2852 88.1309C46.1622 88.2534 45.9957 88.3225 45.8218 88.3232Z" fill="#E6E6E6"/>
<path d="M41.4587 70.9516H33.1444C32.9896 70.9516 32.8412 70.8903 32.7318 70.7814C32.6224 70.6724 32.5609 70.5246 32.5609 70.3706C32.5609 70.2165 32.6224 70.0687 32.7318 69.9597C32.8412 69.8508 32.9896 69.7896 33.1444 69.7896H41.4587C41.6134 69.7896 41.7618 69.8508 41.8712 69.9597C41.9806 70.0687 42.0421 70.2165 42.0421 70.3706C42.0421 70.5246 41.9806 70.6724 41.8712 70.7814C41.7618 70.8903 41.6134 70.9516 41.4587 70.9516Z" fill="#E6E6E6"/>
<path d="M64.9434 70.9516H56.6291C56.4744 70.9516 56.326 70.8903 56.2166 70.7814C56.1071 70.6724 56.0457 70.5246 56.0457 70.3706C56.0457 70.2165 56.1071 70.0687 56.2166 69.9597C56.326 69.8508 56.4744 69.7896 56.6291 69.7896H64.9434C65.0981 69.7896 65.2465 69.8508 65.356 69.9597C65.4654 70.0687 65.5269 70.2165 65.5269 70.3706C65.5269 70.5246 65.4654 70.6724 65.356 70.7814C65.2465 70.8903 65.0981 70.9516 64.9434 70.9516Z" fill="#E6E6E6"/>
<path d="M86.9703 70.9516H78.656C78.5012 70.9516 78.3528 70.8903 78.2434 70.7814C78.134 70.6724 78.0725 70.5246 78.0725 70.3706C78.0725 70.2165 78.134 70.0687 78.2434 69.9597C78.3528 69.8508 78.5012 69.7896 78.656 69.7896H86.9703C87.125 69.7896 87.2734 69.8508 87.3828 69.9597C87.4922 70.0687 87.5537 70.2165 87.5537 70.3706C87.5537 70.5246 87.4922 70.6724 87.3828 70.7814C87.2734 70.8903 87.125 70.9516 86.9703 70.9516Z" fill="#E6E6E6"/>
<path d="M107.537 70.9516H99.223C99.0682 70.9516 98.9198 70.8903 98.8104 70.7814C98.701 70.6724 98.6395 70.5246 98.6395 70.3706C98.6395 70.2165 98.701 70.0687 98.8104 69.9597C98.9198 69.8508 99.0682 69.7896 99.223 69.7896H107.537C107.692 69.7896 107.84 69.8508 107.95 69.9597C108.059 70.0687 108.121 70.2165 108.121 70.3706C108.121 70.5246 108.059 70.6724 107.95 70.7814C107.84 70.8903 107.692 70.9516 107.537 70.9516Z" fill="#E6E6E6"/>
<path d="M112.777 87.0149H107.447C107.273 87.0142 107.106 86.9451 106.983 86.8227C106.861 86.7002 106.791 86.5344 106.79 86.3612V80.0979C106.791 79.9247 106.861 79.7589 106.983 79.6365C107.106 79.514 107.273 79.4449 107.447 79.4442H112.777C112.95 79.4449 113.117 79.514 113.24 79.6365C113.363 79.7589 113.432 79.9247 113.433 80.0979V86.3612C113.432 86.5344 113.363 86.7002 113.24 86.8227C113.117 86.9451 112.95 87.0142 112.777 87.0149Z" fill="#E6E6E6"/>
<path d="M108.546 98.2001H103.217C103.043 98.1994 102.876 98.1303 102.753 98.0078C102.63 97.8854 102.561 97.7196 102.56 97.5464V91.283C102.561 91.1099 102.63 90.9441 102.753 90.8217C102.876 90.6992 103.043 90.6301 103.217 90.6294H108.546C108.72 90.6301 108.887 90.6992 109.01 90.8217C109.133 90.9441 109.202 91.1099 109.203 91.283V97.5464C109.202 97.7196 109.133 97.8854 109.01 98.0078C108.887 98.1303 108.72 98.1994 108.546 98.2001Z" fill="#E6E6E6"/>
<path d="M38.7283 106.624C38.6726 106.554 38.6337 106.472 38.6146 106.385C38.5955 106.297 38.5967 106.207 38.6181 106.12C39.1278 103.993 39.1278 101.778 38.6181 99.6514C38.5967 99.5645 38.5956 99.4738 38.6148 99.3864C38.634 99.2989 38.6729 99.217 38.7287 99.1468C38.7833 99.078 38.8528 99.0225 38.9321 98.9844C39.0114 98.9463 39.0984 98.9266 39.1864 98.9269H44.6362C44.7755 98.9272 44.9102 98.9767 45.0163 99.0666C45.1223 99.1565 45.1929 99.281 45.2154 99.4179C45.5711 101.718 45.5711 104.058 45.2154 106.358C45.1929 106.495 45.1223 106.619 45.0163 106.709C44.9102 106.799 44.7755 106.849 44.6362 106.849H39.186C39.0975 106.849 39.0103 106.828 38.931 106.789C38.8517 106.75 38.7823 106.694 38.7283 106.624Z" fill="#C10547"/>
<path d="M43.5853 101.848H40.7128C40.6058 101.848 40.5032 101.805 40.4276 101.73C40.3519 101.655 40.3093 101.552 40.3092 101.446V101.276C40.3093 101.169 40.3519 101.067 40.4276 100.992C40.5032 100.916 40.6058 100.874 40.7128 100.874H43.5853C43.6923 100.874 43.7949 100.916 43.8705 100.992C43.9462 101.067 43.9887 101.169 43.9889 101.276V101.446C43.9886 101.553 43.946 101.655 43.8704 101.73C43.7947 101.805 43.6922 101.848 43.5853 101.848Z" fill="#FEFEFE"/>
<path d="M43.5853 103.528H40.7128C40.6058 103.528 40.5032 103.485 40.4276 103.41C40.3519 103.335 40.3093 103.233 40.3092 103.126V102.956C40.3093 102.849 40.3519 102.747 40.4276 102.672C40.5032 102.597 40.6058 102.554 40.7128 102.554H43.5853C43.6923 102.554 43.7949 102.597 43.8705 102.672C43.9462 102.747 43.9887 102.849 43.9889 102.956V103.127C43.9886 103.233 43.946 103.335 43.8704 103.41C43.7947 103.486 43.6922 103.528 43.5853 103.528Z" fill="#FEFEFE"/>
<path d="M60.9136 91.8697C60.8579 91.7995 60.819 91.7175 60.7999 91.6301C60.7808 91.5426 60.782 91.452 60.8034 91.3651C61.3131 89.2389 61.3131 87.023 60.8034 84.8968C60.782 84.8099 60.7809 84.7192 60.8001 84.6318C60.8193 84.5443 60.8582 84.4624 60.914 84.3922C60.9686 84.3234 61.0381 84.2679 61.1174 84.2298C61.1967 84.1917 61.2837 84.172 61.3717 84.1723H66.8215C66.9608 84.1726 67.0955 84.2221 67.2016 84.312C67.3076 84.4019 67.3782 84.5264 67.4007 84.6633C67.7564 86.9631 67.7564 89.3035 67.4007 91.6033C67.3782 91.7402 67.3076 91.8647 67.2016 91.9546C67.0955 92.0445 66.9608 92.094 66.8215 92.0943H61.3713C61.2828 92.094 61.1956 92.0736 61.1163 92.0347C61.037 91.9958 60.9676 91.9393 60.9136 91.8697Z" fill="#C10547"/>
<path d="M65.7706 87.0932H62.8981C62.7911 87.0931 62.6885 87.0507 62.6129 86.9754C62.5372 86.9001 62.4946 86.7979 62.4945 86.6914V86.5211C62.4946 86.4146 62.5372 86.3125 62.6129 86.2371C62.6885 86.1618 62.7911 86.1194 62.8981 86.1193H65.7706C65.8776 86.1194 65.9802 86.1618 66.0558 86.2371C66.1315 86.3125 66.174 86.4146 66.1742 86.5211V86.6918C66.1739 86.7983 66.1313 86.9003 66.0557 86.9756C65.98 87.0508 65.8775 87.0931 65.7706 87.0932Z" fill="#FEFEFE"/>
<path d="M65.7706 88.7734H62.8981C62.7911 88.7732 62.6885 88.7309 62.6129 88.6555C62.5372 88.5802 62.4946 88.4781 62.4945 88.3715V88.2013C62.4946 88.0947 62.5372 87.9926 62.6129 87.9173C62.6885 87.8419 62.7911 87.7995 62.8981 87.7994H65.7706C65.8776 87.7995 65.9802 87.8419 66.0558 87.9173C66.1315 87.9926 66.174 88.0947 66.1742 88.2013V88.372C66.1739 88.4784 66.1313 88.5805 66.0557 88.6557C65.98 88.7309 65.8775 88.7732 65.7706 88.7734Z" fill="#FEFEFE"/>
<path d="M76.0586 85.0516C76.0029 84.9813 75.964 84.8994 75.9449 84.812C75.9258 84.7245 75.927 84.6339 75.9484 84.547C76.4582 82.4208 76.4582 80.2049 75.9484 78.0787C75.9271 77.9918 75.9259 77.9011 75.9451 77.8137C75.9643 77.7262 76.0033 77.6443 76.059 77.5741C76.1136 77.5053 76.1831 77.4497 76.2624 77.4116C76.3417 77.3735 76.4287 77.3539 76.5168 77.3542H81.9665C82.1058 77.3545 82.2405 77.404 82.3466 77.4939C82.4527 77.5838 82.5232 77.7083 82.5458 77.8452C82.9015 80.145 82.9015 82.4854 82.5458 84.7852C82.5232 84.9221 82.4527 85.0466 82.3466 85.1365C82.2405 85.2264 82.1058 85.2759 81.9665 85.2762H76.5163C76.4279 85.2759 76.3407 85.2555 76.2613 85.2166C76.182 85.1777 76.1127 85.1212 76.0586 85.0516Z" fill="#C10547"/>
<path d="M80.9156 80.2751H78.0431C77.9361 80.275 77.8335 80.2326 77.7579 80.1573C77.6822 80.0819 77.6397 79.9798 77.6395 79.8732V79.703C77.6397 79.5965 77.6822 79.4943 77.7579 79.419C77.8335 79.3437 77.9361 79.3013 78.0431 79.3012H80.9156C81.0226 79.3013 81.1252 79.3437 81.2009 79.419C81.2765 79.4943 81.3191 79.5965 81.3192 79.703V79.8737C81.3189 79.9802 81.2763 80.0822 81.2007 80.1574C81.125 80.2327 81.0225 80.275 80.9156 80.2751Z" fill="#FEFEFE"/>
<path d="M80.9156 81.9553H78.0431C77.9361 81.9551 77.8335 81.9127 77.7579 81.8374C77.6822 81.7621 77.6397 81.6599 77.6395 81.5534V81.3832C77.6397 81.2766 77.6822 81.1745 77.7579 81.0992C77.8335 81.0238 77.9361 80.9814 78.0431 80.9813H80.9156C81.0226 80.9814 81.1252 81.0238 81.2009 81.0992C81.2765 81.1745 81.3191 81.2766 81.3192 81.3832V81.5539C81.3189 81.6603 81.2763 81.7623 81.2007 81.8376C81.125 81.9128 81.0225 81.9551 80.9156 81.9553Z" fill="#FEFEFE"/>
<path d="M97.2464 85.9603C97.1907 85.8901 97.1518 85.8082 97.1327 85.7207C97.1136 85.6333 97.1149 85.5427 97.1363 85.4558C97.646 83.3295 97.646 81.1137 97.1363 78.9875C97.1149 78.9005 97.1138 78.8099 97.133 78.7224C97.1522 78.635 97.1911 78.5531 97.2469 78.4829C97.3015 78.4141 97.371 78.3585 97.4503 78.3204C97.5296 78.2823 97.6166 78.2627 97.7046 78.263H103.154C103.294 78.2633 103.428 78.3128 103.534 78.4027C103.641 78.4926 103.711 78.6171 103.734 78.7539C104.089 81.0537 104.089 83.3942 103.734 85.694C103.711 85.8308 103.641 85.9553 103.534 86.0452C103.428 86.1351 103.294 86.1846 103.154 86.1849H97.7042C97.6157 86.1847 97.5285 86.1643 97.4492 86.1254C97.3699 86.0864 97.3005 86.03 97.2464 85.9603Z" fill="#C10547"/>
<path d="M102.103 81.1839H99.231C99.124 81.1838 99.0214 81.1414 98.9458 81.0661C98.8701 80.9907 98.8275 80.8886 98.8274 80.782V80.6118C98.8275 80.5053 98.8701 80.4031 98.9458 80.3278C99.0214 80.2525 99.124 80.2101 99.231 80.2099H102.103C102.21 80.2101 102.313 80.2525 102.389 80.3278C102.464 80.4031 102.507 80.5053 102.507 80.6118V80.7825C102.507 80.889 102.464 80.991 102.389 81.0662C102.313 81.1415 102.21 81.1838 102.103 81.1839Z" fill="#FEFEFE"/>
<path d="M102.103 82.864H99.231C99.124 82.8639 99.0214 82.8215 98.9458 82.7462C98.8701 82.6709 98.8275 82.5687 98.8274 82.4622V82.292C98.8275 82.1854 98.8701 82.0833 98.9458 82.0079C99.0214 81.9326 99.124 81.8902 99.231 81.8901H102.103C102.21 81.8902 102.313 81.9326 102.389 82.0079C102.464 82.0833 102.507 82.1854 102.507 82.292V82.4626C102.507 82.5691 102.464 82.6711 102.389 82.7464C102.313 82.8216 102.21 82.8639 102.103 82.864Z" fill="#FEFEFE"/>
<path d="M205.232 196.881C205.231 197.664 205.4 198.439 205.726 199.152C206.052 199.866 206.528 200.501 207.123 201.015C207.717 201.529 208.415 201.909 209.17 202.131C209.925 202.353 210.719 202.41 211.498 202.3C212.217 203.943 213.402 205.341 214.908 206.323C216.414 207.305 218.175 207.829 219.975 207.828C222.427 207.828 224.778 206.859 226.512 205.132C228.246 203.405 229.22 201.064 229.22 198.622V190.645C229.22 188.592 227.548 187.905 225.486 187.905H214.463C212.401 187.905 210.729 188.592 210.729 190.645V191.406C209.272 191.408 207.874 191.985 206.844 193.012C205.813 194.038 205.234 195.429 205.232 196.881ZM206.731 196.881C206.733 195.825 207.154 194.813 207.904 194.067C208.653 193.321 209.669 192.901 210.729 192.899V198.62C210.729 199.371 210.821 200.118 211.003 200.846C210.912 200.852 210.822 200.86 210.729 200.86C209.67 200.859 208.654 200.439 207.904 199.693C207.155 198.947 206.733 197.936 206.731 196.881Z" fill="#C10547"/>
<path d="M219.954 190.422C223.748 190.422 226.824 189.985 226.824 189.445C226.824 188.905 223.748 188.468 219.954 188.468C216.159 188.468 213.084 188.905 213.084 189.445C213.084 189.985 216.159 190.422 219.954 190.422Z" fill="#2F2E41"/>
<path d="M204.727 353.047H194.303V366.729H204.727V353.047Z" fill="#ED9DA0"/>
<path d="M196.082 376.172H218.241C220.146 376.169 222.027 375.742 223.745 374.922L227.83 372.968C228.279 372.752 228.652 372.405 228.899 371.973C229.146 371.541 229.254 371.044 229.209 370.549C229.165 370.054 228.97 369.584 228.65 369.202C228.331 368.82 227.902 368.544 227.421 368.411L218.992 366.089L204.575 358.545L204.564 358.599C204.295 359.959 203.877 362.014 203.824 362.138C202.345 363.826 200.826 364.602 199.309 364.449C196.663 364.182 194.904 361.139 194.887 361.109L194.874 361.085L194.847 361.088C194.578 361.099 194.315 361.171 194.079 361.3C193.843 361.428 193.639 361.609 193.485 361.828C192.881 362.734 193.249 364.13 193.31 364.341C192.587 365.044 192.263 368.978 192.238 369.296C191.192 370.399 190.696 371.459 190.761 372.448C190.817 372.924 190.974 373.382 191.22 373.794C191.467 374.205 191.798 374.559 192.192 374.834C193.297 375.71 194.67 376.183 196.082 376.175V376.172Z" fill="#090814"/>
<path d="M121.71 359.945L131.719 362.845L135.557 349.707L125.548 346.808L121.71 359.945Z" fill="#ED9DA0"/>
<path d="M120.772 369.506L142.049 375.67C143.879 376.197 145.804 376.311 147.684 376.002L152.155 375.261C152.648 375.178 153.103 374.949 153.461 374.602C153.819 374.256 154.062 373.809 154.158 373.321C154.254 372.833 154.198 372.328 153.998 371.872C153.798 371.417 153.464 371.033 153.039 370.772L145.598 366.198L133.87 354.944L133.845 354.991C133.207 356.221 132.225 358.078 132.141 358.183C130.248 359.391 128.572 359.715 127.158 359.146C124.692 358.154 123.857 354.743 123.849 354.709L123.842 354.682L123.816 354.678C123.555 354.614 123.282 354.61 123.019 354.667C122.757 354.725 122.511 354.842 122.3 355.009C121.466 355.712 121.429 357.154 121.428 357.373C120.536 357.848 119.12 361.535 119.008 361.833C117.695 362.601 116.92 363.481 116.707 364.449C116.627 364.921 116.649 365.405 116.771 365.868C116.893 366.331 117.111 366.763 117.413 367.136C118.228 368.285 119.414 369.121 120.772 369.506Z" fill="#090814"/>
<path d="M155.235 107.167C155.236 104.048 156.104 100.99 157.745 98.3326C159.385 95.6753 161.733 93.5228 164.528 92.114C167.323 90.7052 170.455 90.0952 173.576 90.3519C176.698 90.6085 179.688 91.7216 182.212 93.5677C184.737 95.4138 186.699 97.9206 187.88 100.81C189.06 103.699 189.414 106.857 188.901 109.934C188.388 113.012 187.028 115.887 184.974 118.241C182.919 120.595 180.249 122.337 177.26 123.271L173.984 144.832L157.283 130.972C159.56 127.988 161.425 124.714 162.828 121.236C160.494 119.698 158.579 117.608 157.255 115.153C155.93 112.698 155.237 109.955 155.239 107.168L155.235 107.167Z" fill="#ED9DA0"/>
<path d="M148.547 190.459L146.101 156.354C145.889 153.396 146.264 150.426 147.206 147.613L154.458 125.956L175.812 132.786L184.822 153.313L189.729 162.272C190.817 164.258 191.23 166.541 190.906 168.78C190.582 171.019 189.539 173.093 187.933 174.693L184.822 177.791L189.159 193.629L188.702 193.613L189.314 193.692C189.314 193.692 218.308 280.547 217.267 354.413H180.052L177.844 268.668L171.38 357.741L122.341 354.927L148.545 190.459H148.547Z" fill="#EAEAF1"/>
<path d="M149.794 129.34C149.794 129.34 150.585 135.318 157.917 135.514L172.79 135.91C172.79 135.91 160.217 105.441 165.389 108.873C170.56 112.306 184.345 97.9157 184.345 97.9157L188.412 105.512C188.412 105.512 198.128 102.008 187.36 93.4267C187.36 93.4267 174.51 83.5325 160.867 89.4747C147.224 95.4168 149.794 129.34 149.794 129.34Z" fill="#090814"/>
<path d="M209.941 197.182C210.137 193.374 206.555 190.097 201.935 189.858C200.731 189.774 199.522 189.929 198.379 190.315C197.236 190.701 196.181 191.31 195.277 192.106L195.172 192.1L167.787 189.277L169.841 162.212C170.601 156.976 169.125 151.7 163.947 150.515C162.447 150.171 160.889 150.169 159.388 150.51C157.887 150.851 156.483 151.525 155.281 152.483C154.079 153.44 153.11 154.656 152.446 156.039C151.783 157.422 151.441 158.937 151.449 160.469L151.605 194.56C151.61 195.712 151.844 196.851 152.291 197.913C152.739 198.975 153.393 199.939 154.215 200.749C155.038 201.559 156.012 202.2 157.084 202.635C158.155 203.069 159.302 203.289 160.458 203.282L194.826 200.724C195.644 201.609 196.63 202.323 197.727 202.825C198.824 203.326 200.011 203.605 201.217 203.645C205.837 203.883 209.743 200.989 209.94 197.182L209.941 197.182Z" fill="#ED9DA0"/>
<path d="M172.475 150.264L170.827 181.14L147.906 179.593L151.96 147.48" fill="#EAEAF1"/>
<path d="M249.969 376.77L105.985 377C105.818 377 105.657 376.905 105.539 376.736C105.42 376.567 105.354 376.338 105.354 376.099C105.354 375.86 105.42 375.631 105.539 375.462C105.657 375.293 105.818 375.198 105.985 375.198L249.969 374.968C250.136 374.968 250.297 375.063 250.415 375.232C250.533 375.401 250.6 375.63 250.6 375.869C250.6 376.108 250.533 376.337 250.415 376.506C250.297 376.675 250.136 376.77 249.969 376.77Z" fill="#E6E6E6"/>
<path d="M308.655 94.4569L266.745 105.203C265.323 105.566 263.815 105.353 262.551 104.61C261.287 103.867 260.371 102.655 260.004 101.24L247.33 52.2282C246.966 50.8126 247.18 49.3108 247.926 48.0524C248.672 46.794 249.889 45.8817 251.31 45.5156L290.301 35.5178L300.28 39.9664L312.635 87.7457C312.999 89.1612 312.785 90.6626 312.038 91.9207C311.292 93.1788 310.076 94.0909 308.655 94.4569Z" fill="#E6E6E6"/>
<path d="M251.71 47.0527C250.698 47.3134 249.832 47.963 249.301 48.859C248.769 49.7551 248.616 50.8244 248.876 51.8325L261.55 100.844C261.812 101.852 262.464 102.714 263.364 103.244C264.264 103.773 265.338 103.925 266.35 103.667L308.261 92.9184C309.272 92.6578 310.139 92.0082 310.67 91.1121C311.202 90.2161 311.354 89.1467 311.095 88.1387L298.931 41.1012L290.16 37.1932L251.71 47.0527Z" fill="#FEFEFE"/>
<path d="M300.175 40.2206L293.687 41.8838C293.453 41.9442 293.209 41.9579 292.969 41.9242C292.729 41.8905 292.499 41.81 292.29 41.6874C292.081 41.5648 291.899 41.4025 291.754 41.2097C291.608 41.0169 291.502 40.7974 291.442 40.5638L290.209 35.7935C290.203 35.7724 290.204 35.7501 290.21 35.7293C290.217 35.7085 290.23 35.69 290.246 35.676C290.263 35.662 290.284 35.653 290.305 35.6502C290.327 35.6473 290.349 35.6507 290.369 35.6599L300.193 40.0044C300.215 40.0141 300.233 40.0303 300.245 40.0508C300.258 40.0713 300.263 40.0951 300.261 40.1188C300.259 40.1426 300.25 40.1651 300.234 40.1833C300.219 40.2016 300.198 40.2146 300.175 40.2206Z" fill="#E6E6E6"/>
<path d="M296.763 82.0741L277.682 86.9673C277.446 87.028 277.194 86.9926 276.984 86.8688C276.773 86.745 276.621 86.543 276.56 86.3073C276.499 86.0716 276.535 85.8214 276.659 85.6118C276.783 85.4022 276.986 85.2503 277.223 85.1896L296.301 80.2964C296.42 80.2627 296.544 80.253 296.666 80.2677C296.788 80.2825 296.906 80.3215 297.013 80.3825C297.12 80.4434 297.213 80.5251 297.288 80.6226C297.363 80.7201 297.417 80.8315 297.448 80.9503C297.478 81.069 297.485 81.1927 297.467 81.314C297.449 81.4353 297.407 81.5517 297.343 81.6565C297.278 81.7613 297.194 81.8522 297.094 81.9239C296.994 81.9956 296.881 82.0467 296.761 82.0741H296.763Z" fill="#CCCCCC"/>
<path d="M301.221 84.1299L278.458 89.967C278.222 90.0277 277.97 89.9923 277.76 89.8685C277.549 89.7447 277.397 89.5427 277.336 89.307C277.275 89.0713 277.311 88.8211 277.435 88.6115C277.559 88.4019 277.762 88.25 277.999 88.1893L300.761 82.3522C300.879 82.3221 301.001 82.3154 301.12 82.3323C301.24 82.3492 301.356 82.3894 301.46 82.4507C301.564 82.512 301.655 82.5931 301.728 82.6895C301.801 82.7858 301.854 82.8955 301.884 83.0122C301.914 83.1289 301.921 83.2504 301.904 83.3698C301.887 83.4891 301.846 83.604 301.785 83.7077C301.723 83.8115 301.642 83.9022 301.545 83.9747C301.448 84.0471 301.338 84.0998 301.221 84.1299Z" fill="#CCCCCC"/>
<path d="M269.895 92.8593C271.694 92.8593 273.152 91.4069 273.152 89.6153C273.152 87.8237 271.694 86.3713 269.895 86.3713C268.095 86.3713 266.637 87.8237 266.637 89.6153C266.637 91.4069 268.095 92.8593 269.895 92.8593Z" fill="#C10547"/>
<path d="M294.735 73.5838L269.393 80.0798C268.661 80.2666 267.884 80.1565 267.233 79.7736C266.582 79.3908 266.11 78.7665 265.921 78.0377L260.611 57.4942C260.424 56.7652 260.534 55.992 260.919 55.3442C261.303 54.6963 261.93 54.2267 262.661 54.0383L288.002 47.5428C288.735 47.356 289.511 47.4661 290.162 47.849C290.813 48.2318 291.285 48.8561 291.474 49.5849L296.785 70.1279C296.972 70.8567 296.861 71.6297 296.477 72.2774C296.092 72.9251 295.466 73.3947 294.735 73.5834V73.5838Z" fill="#FEFEFE"/>
<path d="M294.735 73.5838L269.393 80.0798C268.661 80.2666 267.884 80.1565 267.233 79.7736C266.582 79.3908 266.11 78.7665 265.921 78.0377L260.611 57.4942C260.424 56.7652 260.534 55.992 260.919 55.3442C261.303 54.6963 261.93 54.2267 262.661 54.0383L288.002 47.5428C288.735 47.356 289.511 47.4661 290.162 47.849C290.813 48.2318 291.285 48.8561 291.474 49.5849L296.785 70.1279C296.972 70.8567 296.861 71.6297 296.477 72.2774C296.092 72.9251 295.466 73.3947 294.735 73.5834V73.5838ZM262.745 54.3618C262.099 54.5282 261.546 54.9429 261.207 55.5149C260.868 56.087 260.771 56.7697 260.937 57.4131L266.247 77.9561C266.414 78.5991 266.831 79.1499 267.405 79.4876C267.979 79.8252 268.665 79.9222 269.311 79.7572L294.65 73.2603C295.296 73.0938 295.849 72.6791 296.188 72.1071C296.528 71.535 296.625 70.8525 296.459 70.209L291.149 49.666C290.982 49.023 290.566 48.4722 289.991 48.1346C289.417 47.7969 288.731 47.6999 288.085 47.8649L262.745 54.3618Z" fill="#E6E6E6"/>
<path d="M286.716 54.4486L273.927 57.7268C273.815 57.7579 273.696 57.7457 273.593 57.6925C273.489 57.6393 273.411 57.5492 273.372 57.4403C273.353 57.3833 273.347 57.3232 273.353 57.2638C273.359 57.2043 273.377 57.1466 273.406 57.0943C273.435 57.042 273.475 56.9962 273.522 56.9596C273.57 56.9231 273.624 56.8966 273.682 56.8818L286.701 53.5445C287.227 53.8099 287.088 54.3524 286.716 54.4481V54.4486Z" fill="#F2F2F2"/>
<path d="M287.293 56.683L274.504 59.9612C274.392 59.9923 274.272 59.98 274.169 59.9267C274.066 59.8735 273.987 59.7832 273.949 59.6742C273.93 59.6173 273.924 59.5572 273.93 59.4977C273.936 59.4381 273.954 59.3804 273.983 59.3281C274.012 59.2758 274.052 59.23 274.099 59.1935C274.147 59.1569 274.201 59.1305 274.259 59.1157L287.278 55.7784C287.804 56.0438 287.666 56.5864 287.293 56.682V56.683Z" fill="#F2F2F2"/>
<path d="M272.067 61.9396L268.164 62.9398C268.037 62.9724 267.901 62.9533 267.788 62.8866C267.675 62.82 267.593 62.7112 267.56 62.5843L266.374 57.9983C266.342 57.8714 266.361 57.7367 266.428 57.6239C266.495 57.5111 266.604 57.4293 266.731 57.3967L270.635 56.396C270.762 56.3635 270.897 56.3827 271.01 56.4493C271.124 56.516 271.206 56.6246 271.239 56.7514L272.424 61.3375C272.457 61.4644 272.438 61.5991 272.371 61.7119C272.304 61.8247 272.195 61.9069 272.067 61.9396Z" fill="#C10547"/>
<path d="M288.439 61.2648L268.92 66.2682C268.808 66.2993 268.689 66.2871 268.586 66.2339C268.483 66.1807 268.404 66.0906 268.365 65.9817C268.347 65.9247 268.34 65.8646 268.346 65.8051C268.352 65.7456 268.37 65.6879 268.399 65.6356C268.428 65.5833 268.468 65.5374 268.515 65.5009C268.563 65.4644 268.618 65.4379 268.676 65.4232L288.424 60.3612C288.95 60.6266 288.812 61.1692 288.439 61.2648Z" fill="#F2F2F2"/>
<path d="M289.016 63.5002L269.497 68.5036C269.385 68.5347 269.266 68.5224 269.163 68.4693C269.06 68.4161 268.981 68.3259 268.942 68.217C268.924 68.1601 268.917 68.1 268.923 68.0405C268.929 67.981 268.947 67.9233 268.977 67.871C269.006 67.8188 269.045 67.7729 269.093 67.7364C269.14 67.6998 269.195 67.6734 269.253 67.6586L289.003 62.5966C289.529 62.862 289.39 63.4045 289.017 63.5002H289.016Z" fill="#F2F2F2"/>
<path d="M289.593 65.7332L270.075 70.7366C269.963 70.7677 269.843 70.7555 269.74 70.7023C269.637 70.6491 269.558 70.5589 269.519 70.45C269.501 70.3931 269.495 70.333 269.501 70.2735C269.507 70.214 269.525 70.1563 269.554 70.104C269.583 70.0518 269.623 70.0059 269.67 69.9694C269.718 69.9328 269.772 69.9064 269.83 69.8916L289.579 64.8296C290.105 65.095 289.964 65.6375 289.593 65.7332Z" fill="#F2F2F2"/>
<path d="M290.171 67.9676L270.653 72.9728C270.541 73.004 270.421 72.9917 270.318 72.9386C270.215 72.8854 270.136 72.7952 270.097 72.6863C270.079 72.6294 270.073 72.5693 270.079 72.5098C270.085 72.4503 270.103 72.3926 270.132 72.3403C270.161 72.288 270.2 72.2422 270.248 72.2057C270.295 72.1691 270.35 72.1427 270.408 72.1279L290.157 67.0644C290.683 67.3294 290.544 67.8719 290.171 67.9676Z" fill="#F2F2F2"/>
<path d="M290.748 70.2029L271.23 75.2063C271.118 75.2375 270.999 75.2252 270.896 75.172C270.793 75.1188 270.714 75.0287 270.675 74.9198C270.656 74.8628 270.65 74.8027 270.656 74.7432C270.662 74.6837 270.68 74.626 270.709 74.5737C270.738 74.5214 270.778 74.4756 270.825 74.439C270.873 74.4025 270.927 74.3761 270.986 74.3613L290.734 69.2993C291.259 69.5629 291.121 70.1091 290.748 70.2029Z" fill="#F2F2F2"/>
<path d="M270.135 90.7529C270.064 90.7714 269.989 90.7663 269.921 90.7384H269.917L269.029 90.3633C268.949 90.3264 268.886 90.2597 268.854 90.1774C268.822 90.0951 268.823 90.0036 268.858 89.9224C268.893 89.8412 268.958 89.7767 269.04 89.7425C269.121 89.7084 269.213 89.7073 269.296 89.7396L269.871 89.9834L270.624 88.2179C270.642 88.177 270.667 88.1399 270.699 88.1088C270.731 88.0776 270.769 88.053 270.81 88.0364C270.851 88.0198 270.896 88.0114 270.94 88.0118C270.985 88.0122 271.029 88.0214 271.07 88.0388L271.066 88.0505L271.071 88.0388C271.154 88.074 271.219 88.1406 271.253 88.2238C271.287 88.3071 271.286 88.4002 271.251 88.4829L270.364 90.5564C270.343 90.6043 270.312 90.6467 270.272 90.6806C270.233 90.7144 270.186 90.7387 270.135 90.7515V90.7529Z" fill="#FEFEFE"/>
<path d="M332.578 107.35L290.094 99.1246C288.654 98.8441 287.384 98.006 286.563 96.7943C285.742 95.5826 285.438 94.0963 285.716 92.6614L295.411 42.9843C295.692 41.5501 296.534 40.2858 297.75 39.4687C298.967 38.6516 300.46 38.3485 301.901 38.6258L341.426 46.2784L348.519 54.5644L339.068 102.991C338.787 104.425 337.945 105.69 336.729 106.507C335.512 107.324 334.02 107.627 332.578 107.35Z" fill="#E6E6E6"/>
<path d="M301.597 40.1834C300.571 39.9858 299.508 40.2017 298.641 40.7836C297.775 41.3655 297.176 42.2658 296.975 43.2872L287.281 92.9648C287.082 93.9866 287.299 95.045 287.884 95.9078C288.468 96.7706 289.373 97.3673 290.398 97.567L332.882 105.792C333.909 105.99 334.972 105.774 335.838 105.192C336.705 104.61 337.304 103.71 337.504 102.689L346.808 55.0118L340.574 47.7297L301.597 40.1834Z" fill="#FEFEFE"/>
<path d="M333 61.251L313.657 57.5066C313.418 57.4602 313.206 57.3209 313.07 57.1192C312.933 56.9176 312.882 56.6702 312.929 56.4315C312.976 56.1928 313.115 55.9822 313.318 55.8463C313.52 55.7103 313.769 55.66 314.009 55.7064L333.351 59.4508C333.591 59.4972 333.803 59.6366 333.939 59.8382C334.076 60.0398 334.126 60.2872 334.08 60.5259C334.033 60.7647 333.893 60.9752 333.691 61.1112C333.488 61.2471 333.24 61.2975 333 61.251Z" fill="#C10547"/>
<path d="M336.138 65.014L313.064 60.5474C312.824 60.501 312.612 60.3616 312.476 60.16C312.339 59.9584 312.289 59.711 312.335 59.4722C312.382 59.2335 312.522 59.023 312.724 58.887C312.927 58.7511 313.175 58.7007 313.415 58.7472L336.489 63.2138C336.729 63.2602 336.94 63.3996 337.077 63.6012C337.213 63.8028 337.264 64.0502 337.217 64.289C337.171 64.5277 337.031 64.7382 336.828 64.8742C336.626 65.0101 336.377 65.0605 336.138 65.014Z" fill="#C10547"/>
<path d="M330.691 73.0782L311.349 69.3338C311.109 69.2874 310.861 69.3377 310.658 69.4737C310.456 69.6097 310.316 69.8202 310.269 70.0589C310.222 70.2977 310.273 70.545 310.41 70.7467C310.546 70.9483 310.758 71.0877 310.998 71.1341L330.34 74.8785C330.58 74.9249 330.828 74.8746 331.031 74.7386C331.233 74.6026 331.373 74.3921 331.42 74.1534C331.467 73.9147 331.416 73.6673 331.279 73.4656C331.143 73.264 330.931 73.1246 330.691 73.0782Z" fill="#CCCCCC"/>
<path d="M333.829 76.8422L310.755 72.3755C310.516 72.3291 310.267 72.3794 310.065 72.5154C309.862 72.6514 309.722 72.8619 309.676 73.1006C309.629 73.3393 309.68 73.5867 309.816 73.7884C309.953 73.99 310.164 74.1293 310.404 74.1758L333.478 78.6424C333.718 78.6888 333.966 78.6385 334.169 78.5025C334.371 78.3666 334.511 78.1561 334.558 77.9173C334.605 77.6786 334.554 77.4312 334.417 77.2296C334.281 77.028 334.069 76.8886 333.829 76.8422Z" fill="#CCCCCC"/>
<path d="M327.679 88.5071L308.337 84.7627C308.097 84.7163 307.886 84.5769 307.749 84.3753C307.612 84.1737 307.562 83.9263 307.608 83.6876C307.655 83.4488 307.795 83.2383 307.997 83.1024C308.2 82.9664 308.448 82.9161 308.688 82.9625L328.031 86.7069C328.271 86.7533 328.482 86.8926 328.619 87.0943C328.755 87.2959 328.806 87.5433 328.759 87.782C328.713 88.0208 328.573 88.2313 328.37 88.3672C328.168 88.5032 327.919 88.5535 327.679 88.5071Z" fill="#CCCCCC"/>
<path d="M330.817 92.2706L307.743 87.8039C307.503 87.7575 307.292 87.6182 307.155 87.4165C307.019 87.2149 306.968 86.9675 307.015 86.7288C307.061 86.4901 307.201 86.2796 307.404 86.1436C307.606 86.0076 307.855 85.9573 308.094 86.0037L331.168 90.4704C331.408 90.5168 331.62 90.6562 331.756 90.8578C331.893 91.0594 331.943 91.3068 331.897 91.5455C331.85 91.7842 331.71 91.9948 331.508 92.1307C331.305 92.2667 331.057 92.317 330.817 92.2706Z" fill="#CCCCCC"/>
<path d="M304.861 59.7529C306.627 60.0948 308.337 58.9464 308.68 57.1878C309.024 55.4293 307.87 53.7264 306.104 53.3845C304.338 53.0425 302.628 54.1909 302.284 55.9495C301.941 57.7081 303.095 59.4109 304.861 59.7529Z" fill="#C10547"/>
<path d="M304.929 57.7221C304.857 57.7082 304.791 57.6714 304.742 57.6172L304.739 57.6137L304.099 56.896C304.067 56.863 304.043 56.8241 304.027 56.7814C304.011 56.7388 304.003 56.6934 304.005 56.6479C304.007 56.6024 304.018 56.5577 304.038 56.5166C304.058 56.4755 304.086 56.4388 304.12 56.4086C304.154 56.3784 304.194 56.3554 304.237 56.3409C304.281 56.3264 304.327 56.3208 304.372 56.3244C304.418 56.3279 304.462 56.3406 304.503 56.3616C304.543 56.3827 304.579 56.4116 304.608 56.4468L305.023 56.913L306.463 55.6413C306.496 55.6115 306.535 55.5886 306.578 55.5739C306.62 55.5593 306.665 55.5531 306.71 55.5559C306.755 55.5586 306.799 55.5701 306.839 55.5898C306.879 55.6095 306.915 55.637 306.945 55.6706L306.935 55.6788L306.946 55.6709C307.006 55.7382 307.037 55.8264 307.031 55.916C307.026 56.0057 306.985 56.0895 306.917 56.1492L305.22 57.6437C305.18 57.678 305.134 57.7029 305.083 57.7164C305.033 57.7299 304.98 57.7317 304.929 57.7216L304.929 57.7221Z" fill="#FEFEFE"/>
<path d="M306.349 70.8798C306.268 71.2981 306.104 71.6963 305.868 72.0516C305.632 72.407 305.328 72.7126 304.974 72.9509C304.619 73.1892 304.221 73.3557 303.801 73.4407C303.382 73.5257 302.95 73.5276 302.53 73.4463C302.502 73.4416 302.475 73.4352 302.448 73.4272C301.823 73.289 301.252 72.9702 300.807 72.5107C300.363 72.0512 300.064 71.4714 299.949 70.8438C299.834 70.2163 299.907 69.5688 300.159 68.9824C300.411 68.396 300.832 67.8968 301.368 67.5471C301.903 67.1975 302.531 67.0129 303.172 67.0166C303.812 67.0202 304.438 67.2119 304.97 67.5676C305.502 67.9234 305.917 68.4274 306.162 69.0166C306.408 69.6058 306.474 70.2541 306.351 70.8803L306.349 70.8798Z" fill="#C10547"/>
<path d="M299.54 87.0089C301.307 87.3509 303.017 86.2025 303.36 84.4439C303.703 82.6853 302.55 80.9825 300.783 80.6405C299.017 80.2986 297.307 81.447 296.964 83.2056C296.621 84.9641 297.774 86.667 299.54 87.0089Z" fill="#C10547"/>
<path d="M348.313 54.7443L341.737 53.471C341.257 53.3782 340.834 53.0994 340.561 52.6961C340.288 52.2928 340.187 51.7979 340.28 51.3203L341.224 46.4843C341.228 46.4627 341.238 46.4428 341.252 46.4267C341.267 46.4106 341.287 46.3992 341.308 46.3936C341.329 46.388 341.351 46.3886 341.372 46.3953C341.393 46.4019 341.412 46.4144 341.426 46.4312L348.423 54.5563C348.438 54.5744 348.448 54.5968 348.45 54.6205C348.452 54.6441 348.447 54.6678 348.435 54.6883C348.423 54.7088 348.404 54.7251 348.383 54.735C348.361 54.7448 348.337 54.7478 348.313 54.7434L348.313 54.7443Z" fill="#E6E6E6"/>
<path d="M226.394 2.04337H129.424C127.863 2.04337 126.598 3.30302 126.598 4.85689V56.0481C126.598 57.6019 127.863 58.8616 129.424 58.8616H226.394C227.955 58.8616 229.22 57.6019 229.22 56.0481V4.85689C229.22 3.30302 227.955 2.04337 226.394 2.04337Z" fill="#E6E6E6"/>
<path d="M225.664 4.02127H130.258C129.218 4.02127 128.375 4.86104 128.375 5.89696V55.1135C128.375 56.1494 129.218 56.9892 130.258 56.9892H225.664C226.704 56.9892 227.547 56.1494 227.547 55.1135V5.89696C227.547 4.86104 226.704 4.02127 225.664 4.02127Z" fill="#FEFEFE"/>
<path d="M214.124 48.0145H141.695C141.635 48.0145 141.577 47.9908 141.535 47.9485C141.492 47.9062 141.469 47.8488 141.469 47.789V13.2201C141.469 13.1602 141.493 13.1028 141.535 13.0605C141.578 13.0181 141.635 12.9943 141.695 12.9943C141.756 12.9943 141.813 13.0181 141.856 13.0605C141.898 13.1028 141.922 13.1602 141.922 13.2201V47.5634H214.124C214.184 47.5634 214.241 47.5872 214.284 47.6295C214.326 47.6719 214.35 47.7293 214.35 47.7892C214.35 47.8491 214.326 47.9065 214.284 47.9489C214.241 47.9912 214.184 48.015 214.124 48.015V48.0145Z" fill="#3F3D56"/>
<path d="M157.17 45.5316H150.582C150.404 45.5313 150.233 45.4607 150.107 45.335C149.98 45.2094 149.909 45.0391 149.909 44.8615V35.8188C149.909 35.6412 149.98 35.4709 150.107 35.3453C150.233 35.2197 150.404 35.149 150.582 35.1487H157.17C157.348 35.1489 157.519 35.2195 157.645 35.3451C157.771 35.4708 157.842 35.6411 157.843 35.8188V44.8615C157.842 45.0392 157.771 45.2095 157.645 45.3352C157.519 45.4608 157.348 45.5315 157.17 45.5316Z" fill="#C10547"/>
<path d="M169.183 45.532H162.595C162.416 45.5318 162.245 45.4611 162.119 45.3355C161.993 45.2099 161.922 45.0396 161.922 44.8619V27.2413C161.922 27.0637 161.993 26.8934 162.119 26.7678C162.245 26.6421 162.416 26.5715 162.595 26.5712H169.182C169.361 26.5713 169.532 26.642 169.658 26.7676C169.784 26.8932 169.855 27.0636 169.855 27.2413V44.861C169.855 45.0387 169.784 45.2091 169.658 45.3347C169.532 45.4603 169.361 45.531 169.182 45.5311L169.183 45.532Z" fill="#C10547"/>
<path d="M181.196 45.5316H174.608C174.43 45.5313 174.259 45.4607 174.133 45.335C174.007 45.2094 173.936 45.0391 173.935 44.8615V35.8188C173.936 35.6412 174.007 35.4709 174.133 35.3453C174.259 35.2197 174.43 35.149 174.608 35.1487H181.196C181.374 35.1489 181.545 35.2195 181.672 35.3451C181.798 35.4708 181.869 35.6411 181.869 35.8188V44.8615C181.869 45.0392 181.798 45.2095 181.672 45.3352C181.545 45.4608 181.374 45.5315 181.196 45.5316H181.196Z" fill="#C10547"/>
<path d="M193.21 45.5311H186.622C186.448 45.5348 186.279 45.4695 186.153 45.3497C186.027 45.2298 185.953 45.0651 185.949 44.8915V23.8248C185.953 23.6512 186.027 23.4865 186.153 23.3666C186.279 23.2467 186.448 23.1815 186.622 23.1851H193.209C193.384 23.1815 193.552 23.2467 193.678 23.3666C193.805 23.4865 193.878 23.6512 193.882 23.8248V44.8934C193.878 45.0668 193.805 45.2315 193.679 45.3514C193.553 45.4712 193.384 45.5365 193.21 45.533V45.5311Z" fill="#C10547"/>
<path d="M205.222 45.5325H198.634C198.456 45.5324 198.284 45.4617 198.158 45.3361C198.032 45.2105 197.961 45.0401 197.961 44.8624V17.7625C197.961 17.5849 198.032 17.4145 198.158 17.2888C198.284 17.1632 198.456 17.0926 198.634 17.0924H205.222C205.4 17.0926 205.571 17.1632 205.698 17.2888C205.824 17.4145 205.895 17.5849 205.895 17.7625V44.8624C205.895 45.0401 205.824 45.2105 205.698 45.3361C205.571 45.4617 205.4 45.5324 205.222 45.5325Z" fill="#C10547"/>
</g>
<defs>
<linearGradient id="paint0_linear_380_275" x1="32.3385" y1="22.8394" x2="32.3385" y2="83.8383" gradientUnits="userSpaceOnUse">
<stop offset="0.0961538" stop-color="#FF196B"/>
<stop offset="1" stop-color="#FFB0CB"/>
</linearGradient>
<clipPath id="clip0_380_275">
<rect width="358" height="377" fill="white" transform="translate(-0.000244141)"/>
</clipPath>
</defs>
</svg>
